# xmcd
#
# Track frame offsets: 
#        150
#        37163
#        61164
#        80442
#        101186
#        131817
#        144703
#        172807
#        212402
#
# Disc length: 3057 seconds
#
# Revision: 4
# Processed by: cddbd v1.5.2PL0 Copyright (c) Steve Scherf et al.
# Submitted via: ExactAudioCopyFreeDBPlugin 1.0
#
DISCID=7e0bef09
DTITLE=Deep Purple - Live In Birmingham CD1
DYEAR=1993
DGENRE=Hard Rock
TTITLE0=Highway Star
TTITLE1=Black Night
TTITLE2=Talk About Love
TTITLE3=A Twist In The Tail
TTITLE4=Perfect Strangers
TTITLE5=Beethoven
TTITLE6=Jon's Keyboard Solo
TTITLE7=Knockin' At Your Back Door
TTITLE8=Anyone's Daughter
EXTD=
EXTT0=
EXTT1=
EXTT2=
EXTT3=
EXTT4=
EXTT5=
EXTT6=
EXTT7=
EXTT8=
PLAYORDER=
